<?xml version="1.0" encoding="utf-8"?>
<!-- Generator: Adobe Illustrator 15.1.0, SVG Export Plug-In . SVG Version: 6.00 Build 0)  -->
<!DOCTYPE svg PUBLIC "-//W3C//DTD SVG 1.1//EN" "http://www.w3.org/Graphics/SVG/1.1/DTD/svg11.dtd">
<svg version="1.1" id="Layer_1" xmlns="http://www.w3.org/2000/svg" xmlns:xlink="http://www.w3.org/1999/xlink" x="0px" y="0px"
	 width="130px" height="120px" viewBox="0 0 130 120" enable-background="new 0 0 130 120" xml:space="preserve">
<g>
	<rect x="59.81" y="9.685" fill="none" width="13.033" height="7.582"/>
	<linearGradient id="SVGID_1_" gradientUnits="userSpaceOnUse" x1="66.5098" y1="17.2856" x2="66.5464" y2="9.6196">
		<stop  offset="0" style="stop-color:#FFFF30"/>
		<stop  offset="1" style="stop-color:#EE2424"/>
	</linearGradient>
	<path fill-rule="evenodd" clip-rule="evenodd" fill="url(#SVGID_1_)" d="M64.98,17.267c-0.84-1.555-0.985-2.935,1.68-3.817
		c0.95-0.314,1.313-0.687,1.201-2.742c2.133,0.878,2.886,2.172,1.657,3.88c-0.259,0.36-0.432,0.694-0.588,1.081
		c0.979-0.274,2.011-0.606,2.108-3.167c1.78,0.938,1.804,3.121,0.686,3.485c-1.683,0.548-2.55,0.097-3.243,0.958
		c-0.034,0.103-0.07,0.209-0.109,0.32H64.98L64.98,17.267z M62.723,17.267c-2.914-1.363-2.797-3.21-0.202-4.28
		c1.189-0.49,2.524-1.135,1.999-3.302c3.36,1.518,2.868,2.494-0.607,4.776c-0.727,0.478-0.614,1.632,0.496,2.806H62.723
		L62.723,17.267z"/>
	<path fill-rule="evenodd" clip-rule="evenodd" fill="#00ADEE" d="M38.591,8.635c-0.549-3.193,2.506-6.125,6.19-8.197
		c-2.771,3.615-2.157,4.969-5.479,7.731c1.252-0.804,2.549-1.547,3.884-2.223c-0.275-0.096-0.474-0.358-0.474-0.666
		c0-0.39,0.316-0.706,0.706-0.706s0.706,0.316,0.706,0.706c0,0.078-0.013,0.154-0.036,0.224c0.45-0.17,0.924-0.292,1.322-0.551
		c2.577-2.259,3.545-1.603,6.705-3.305c-1.984,2.493-4.527,4.397-6.855,3.817c-0.291,0.077-0.545,0.249-0.802,0.418
		c0.333,0.057,0.586,0.346,0.586,0.695c0,0.39-0.316,0.706-0.705,0.706c-0.39,0-0.706-0.316-0.706-0.706
		c0-0.122,0.031-0.237,0.086-0.337c-1.454,0.721-2.861,1.521-4.215,2.396c4.488-1.516,5.389-0.165,10.342-0.667
		c-3.985,2.206-8.397,3.364-11.059,1.139c-0.448,0.302-0.89,0.612-1.326,0.93h0.008c0.39,0,0.706,0.316,0.706,0.705
		c0,0.39-0.316,0.706-0.706,0.706c-0.389,0-0.706-0.316-0.706-0.706c0-0.073,0.011-0.144,0.032-0.21
		c-1.378,1.046-2.691,2.173-3.932,3.374c4.749-2.583,5.947-1.227,11.32-2.693c-3.955,3.14-8.57,5.208-11.882,3.246
		c-0.595,0.597-1.172,1.211-1.731,1.841c0.077-0.028,0.159-0.044,0.246-0.044c0.39,0,0.706,0.316,0.706,0.706
		s-0.316,0.706-0.706,0.706s-0.706-0.316-0.706-0.706c0-0.053,0.006-0.104,0.017-0.154c-1.145,1.333-2.21,2.737-3.188,4.204
		c4.087-3.623,5.55-2.551,10.479-5.188c-3.162,3.951-7.21,7.001-10.883,5.807c-0.441,0.687-0.863,1.388-1.265,2.101
		c0.124-0.107,0.285-0.173,0.462-0.173c0.39,0,0.706,0.316,0.706,0.706s-0.316,0.706-0.706,0.706c-0.389,0-0.705-0.316-0.705-0.706
		c0-0.039,0.003-0.076,0.009-0.112c-0.827,1.505-1.566,3.063-2.212,4.671c3.146-3.923,4.813-3.289,9.033-6.703
		c-2.332,4.415-5.676,8.13-9.444,7.765c-0.167,0.451-0.328,0.906-0.48,1.364c0.112-0.075,0.247-0.119,0.392-0.119
		c0.39,0,0.706,0.316,0.706,0.706s-0.316,0.706-0.706,0.706c-0.302,0-0.56-0.19-0.66-0.458c-0.681,2.192-1.19,4.459-1.515,6.785
		c2.325-4.862,4.09-4.473,7.576-8.81c-1.354,4.849-3.865,9.22-7.678,9.601c-0.049,0.406-0.092,0.814-0.13,1.224
		c0.128-0.175,0.335-0.288,0.569-0.288c0.389,0,0.705,0.316,0.705,0.705c0,0.39-0.316,0.706-0.705,0.706
		c-0.275,0-0.514-0.158-0.63-0.387c-0.08,1.07-0.121,2.151-0.121,3.242c0,0.846,0.024,1.686,0.073,2.52
		c1.193-5.111,2.89-5.015,5.274-9.697c-0.313,4.705-1.787,9.192-5.241,10.215c0.046,0.654,0.106,1.303,0.18,1.948
		c0.118-0.227,0.354-0.381,0.627-0.381c0.389,0,0.705,0.316,0.705,0.706c0,0.389-0.316,0.705-0.705,0.705
		c-0.21,0-0.398-0.091-0.528-0.237c0.27,2.007,0.677,3.971,1.213,5.88c-0.021-5.668,1.936-6.449,3.178-12.66
		c1.215,5.79,0.986,11.706-2.694,14.255c0.126,0.393,0.259,0.784,0.397,1.171c0.013-0.378,0.324-0.681,0.705-0.681
		c0.389,0,0.705,0.316,0.705,0.706s-0.316,0.706-0.705,0.706c-0.209,0-0.396-0.091-0.525-0.235c0.81,2.194,1.794,4.303,2.935,6.313
		c-1.324-5.882,0.515-6.947,0.482-13.424c2.367,5.453,3.331,11.326,0.183,14.555c0.173,0.283,0.349,0.564,0.528,0.844
		c0.092-0.281,0.357-0.486,0.67-0.486c0.39,0,0.706,0.316,0.706,0.705c0,0.391-0.316,0.707-0.706,0.707
		c-0.021,0-0.042-0.002-0.063-0.004c1.192,1.76,2.511,3.426,3.943,4.988c-2.774-5.908-1.051-7.211-2.401-13.734
		c3.434,4.929,5.548,10.56,2.977,14.349c0.398,0.418,0.806,0.826,1.22,1.229c0-0.012,0-0.021,0-0.033
		c0-0.391,0.316-0.705,0.705-0.705c0.39,0,0.706,0.314,0.706,0.705c0,0.387-0.313,0.701-0.7,0.705c2,1.85,4.174,3.512,6.498,4.957
		c-4.759-5.051-3.378-6.756-6.683-12.705c4.8,3.719,8.527,8.527,7.079,12.949c0.428,0.262,0.861,0.514,1.298,0.76
		c-0.032-0.082-0.05-0.17-0.05-0.262c0-0.391,0.316-0.705,0.705-0.705c0.39,0,0.706,0.314,0.706,0.705
		c0,0.344-0.247,0.631-0.573,0.693c1.764,0.941,3.601,1.764,5.5,2.457c-4.927-3.846-4.088-5.814-8.23-10.902
		c5.282,2.771,9.729,6.758,9.268,11.266c0.511,0.172,1.026,0.334,1.545,0.486c-0.136-0.129-0.221-0.311-0.221-0.514
		c0-0.389,0.315-0.705,0.705-0.705s0.706,0.316,0.706,0.705c0,0.342-0.243,0.627-0.566,0.693c2.39,0.662,4.864,1.125,7.402,1.369
		c-6.303-2.918-5.655-5.018-10.938-9.309c5.825,1.662,11.063,4.725,11.389,9.348c1.219,0.105,2.452,0.158,3.698,0.158
		c0.301,0,0.601-0.004,0.9-0.012c-2.584-0.518-4.762-3.316-6.29-6.525c3.555,3.131,4.871,2.357,7.663,6.561
		c3.89,0.584,8.419,5.035,10.543,4.383l-1.391,1.129c-3.12-0.398-5.908-4.84-9.768-5.07c-0.55,0.021-1.103,0.035-1.658,0.035
		c-0.805,0-1.604-0.021-2.398-0.064c0.222,0.119,0.372,0.352,0.372,0.621c0,0.389-0.316,0.705-0.706,0.705s-0.706-0.316-0.706-0.705
		c0-0.299,0.187-0.555,0.45-0.658c-0.259-0.018-0.517-0.037-0.774-0.059c-2.934,3.574-8.97,3.063-14.68,1.07
		c5.096-0.352,6.749-1.615,10.145-1.699c-1.227-0.236-2.435-0.525-3.622-0.863c0.099,0.123,0.158,0.277,0.158,0.445
		c0,0.389-0.316,0.705-0.706,0.705s-0.706-0.316-0.706-0.705c0-0.313,0.203-0.578,0.485-0.67c-0.389-0.119-0.774-0.242-1.158-0.371
		c-3.577,2.924-9.393,1.242-14.599-1.828c5.467,0.705,7.21-0.418,11.105,0.486c-1.189-0.516-2.35-1.082-3.48-1.699
		c0.02,0.064,0.03,0.133,0.03,0.201c0,0.391-0.316,0.707-0.706,0.707s-0.706-0.316-0.706-0.707c0-0.326,0.223-0.602,0.525-0.682
		c-0.306-0.176-0.609-0.354-0.91-0.537c-4.199,1.885-9.377-1.223-13.618-5.508c4.705,1.912,6.749,1.52,9.807,2.908
		c-1.217-0.928-2.384-1.918-3.496-2.967c0.016,0.057,0.023,0.117,0.023,0.18c0,0.391-0.316,0.707-0.706,0.707
		c-0.389,0-0.705-0.316-0.705-0.707c0-0.389,0.316-0.705,0.705-0.705c0.053,0,0.104,0.006,0.153,0.018
		c-0.402-0.393-0.796-0.793-1.183-1.199c-4.488,1.252-9.123-2.695-12.619-7.668c5.309,3.281,7.236,2.459,11.241,6.146
		c-1.119-1.295-2.163-2.656-3.125-4.078v0.002c0,0.389-0.316,0.705-0.706,0.705c-0.389,0-0.705-0.316-0.705-0.705
		c0-0.391,0.316-0.705,0.705-0.705c0.098,0,0.19,0.02,0.274,0.055c-0.27-0.414-0.533-0.834-0.789-1.258
		c0.055,0.104,0.111,0.207,0.167,0.314c-4.723,0.1-8.18-4.98-10.242-10.753c4.247,4.582,6.324,4.296,9.207,8.935
		c-0.856-1.555-1.621-3.166-2.285-4.826c-0.102,0.264-0.358,0.453-0.659,0.453c-0.389,0-0.705-0.316-0.705-0.707
		c0-0.388,0.316-0.705,0.705-0.705c0.114,0,0.222,0.027,0.318,0.075c-0.261-0.695-0.504-1.399-0.729-2.11
		c0.031,0.108,0.061,0.219,0.092,0.332c-4.631-0.93-6.899-6.64-7.656-12.724c3.252,5.573,5.374,5.576,7.218,11.249
		c-0.54-1.884-0.957-3.821-1.24-5.801c-0.125,0.199-0.346,0.331-0.598,0.331c-0.39,0-0.706-0.316-0.706-0.706
		c0-0.389,0.316-0.705,0.706-0.705c0.185,0,0.354,0.071,0.479,0.188c-0.085-0.695-0.154-1.395-0.206-2.099
		c-4.254-1.844-5.333-7.797-4.888-13.82c2.044,5.955,4.074,6.45,4.795,12.066c-0.017-0.492-0.025-0.985-0.025-1.481
		c0-1.064,0.039-2.119,0.114-3.164c-0.12,0.092-0.269,0.147-0.432,0.147c-0.389,0-0.705-0.316-0.705-0.705
		c0-0.39,0.316-0.706,0.705-0.706c0.205,0,0.39,0.088,0.519,0.228c0.036-0.38,0.078-0.759,0.124-1.136
		c-3.333-2.551-3.005-8.026-1.322-13.236c0.484,5.248,1.953,6.403,1.736,10.548c0.303-1.626,0.696-3.221,1.174-4.779
		c-0.121,0.1-0.276,0.159-0.446,0.159c-0.389,0-0.705-0.316-0.705-0.706c0-0.389,0.316-0.705,0.705-0.705
		c0.324,0,0.596,0.218,0.68,0.515c0.196-0.6,0.405-1.194,0.626-1.783c-2.646-3.185-1.21-8.426,1.474-13.142
		c-0.59,5.204,0.593,6.648-0.429,10.606c0.612-1.358,1.291-2.68,2.033-3.961c-0.069,0.023-0.143,0.035-0.22,0.035
		c-0.39,0-0.705-0.316-0.705-0.706c0-0.389,0.315-0.705,0.705-0.705c0.346,0,0.634,0.249,0.694,0.578
		c0.207-0.338,0.417-0.674,0.632-1.007c-2.009-3.712,0.575-8.574,4.289-12.625c-1.859,5.298-0.769,6.838-3.229,11.063
		c0.937-1.321,1.946-2.587,3.021-3.793c-0.363-0.028-0.649-0.333-0.649-0.703c0-0.39,0.316-0.706,0.706-0.706
		c0.349,0,0.639,0.254,0.695,0.587c0.348-0.371,0.703-0.736,1.063-1.095c-1.056-3.927,2.296-8.118,6.566-11.357
		c-2.517,4.423-2.097,6.242-4.36,9.31c0.886-0.768,1.803-1.5,2.749-2.196c-0.259-0.104-0.442-0.358-0.442-0.655
		c0-0.389,0.316-0.705,0.706-0.705c0.377,0,0.686,0.296,0.705,0.669C38.204,8.896,38.397,8.765,38.591,8.635L38.591,8.635z"/>
	<path fill-rule="evenodd" clip-rule="evenodd" fill="#00ADEE" d="M91.503,8.635c0.551-3.193-2.506-6.125-6.189-8.197
		c2.771,3.615,2.156,4.969,5.479,7.731c-1.253-0.804-2.549-1.547-3.885-2.223c0.275-0.096,0.474-0.358,0.474-0.666
		c0-0.39-0.316-0.706-0.705-0.706c-0.39,0-0.706,0.316-0.706,0.706c0,0.078,0.013,0.154,0.037,0.224
		c-0.462-0.132-0.879-0.271-1.323-0.551c-2.576-2.259-3.545-1.603-6.705-3.305c1.984,2.493,4.466,4.348,6.794,3.768
		c0.308,0.055,0.641,0.244,0.864,0.467c-0.333,0.057-0.586,0.346-0.586,0.695c0,0.39,0.315,0.706,0.705,0.706
		s0.706-0.316,0.706-0.706c0-0.122-0.031-0.237-0.086-0.337c1.453,0.721,2.86,1.521,4.215,2.396
		c-4.488-1.516-5.39-0.165-10.343-0.667c3.985,2.206,8.397,3.364,11.059,1.139c0.448,0.302,0.891,0.612,1.326,0.93h-0.008
		c-0.39,0-0.706,0.316-0.706,0.705c0,0.39,0.316,0.706,0.706,0.706s0.705-0.316,0.705-0.706c0-0.073-0.011-0.144-0.031-0.21
		c1.377,1.046,2.689,2.173,3.931,3.374c-4.749-2.583-5.947-1.227-11.32-2.693c3.955,3.14,8.57,5.208,11.882,3.246
		c0.595,0.597,1.173,1.211,1.731,1.841c-0.076-0.028-0.159-0.044-0.246-0.044c-0.389,0-0.705,0.316-0.705,0.706
		s0.316,0.706,0.705,0.706c0.39,0,0.706-0.316,0.706-0.706c0-0.053-0.006-0.104-0.017-0.154c1.145,1.333,2.21,2.737,3.188,4.204
		c-4.087-3.623-5.55-2.551-10.479-5.188c3.162,3.951,7.21,7.001,10.883,5.807c0.441,0.687,0.863,1.388,1.266,2.101
		c-0.124-0.107-0.286-0.173-0.463-0.173c-0.389,0-0.705,0.316-0.705,0.706s0.316,0.706,0.705,0.706c0.39,0,0.706-0.316,0.706-0.706
		c0-0.039-0.003-0.076-0.009-0.112c0.826,1.505,1.566,3.063,2.212,4.671c-3.146-3.923-4.813-3.289-9.033-6.703
		c2.332,4.415,5.676,8.13,9.443,7.765c0.168,0.451,0.327,0.906,0.48,1.364c-0.112-0.075-0.247-0.119-0.392-0.119
		c-0.391,0-0.706,0.316-0.706,0.706s0.315,0.706,0.706,0.706c0.302,0,0.56-0.19,0.66-0.458c0.681,2.192,1.19,4.459,1.515,6.785
		c-2.325-4.862-4.091-4.473-7.576-8.81c1.354,4.849,3.865,9.22,7.679,9.601c0.049,0.406,0.092,0.814,0.13,1.224
		c-0.129-0.175-0.335-0.288-0.569-0.288c-0.389,0-0.705,0.316-0.705,0.705c0,0.39,0.316,0.706,0.705,0.706
		c0.275,0,0.514-0.158,0.631-0.387c0.079,1.07,0.12,2.151,0.12,3.242c0,0.846-0.024,1.686-0.073,2.52
		c-1.193-5.111-2.89-5.015-5.274-9.697c0.313,4.705,1.787,9.192,5.242,10.215c-0.046,0.654-0.106,1.303-0.181,1.948
		c-0.117-0.227-0.354-0.381-0.627-0.381c-0.39,0-0.705,0.316-0.705,0.706c0,0.389,0.315,0.705,0.705,0.705
		c0.21,0,0.398-0.091,0.528-0.237c-0.27,2.007-0.678,3.971-1.214,5.88c0.021-5.668-1.936-6.449-3.178-12.66
		c-1.216,5.79-0.986,11.706,2.694,14.255c-0.127,0.393-0.26,0.784-0.397,1.171c-0.013-0.378-0.323-0.681-0.705-0.681
		c-0.389,0-0.705,0.316-0.705,0.706s0.316,0.706,0.705,0.706c0.209,0,0.396-0.091,0.525-0.235c-0.81,2.194-1.793,4.303-2.935,6.313
		c1.324-5.882-0.515-6.947-0.482-13.424c-2.367,5.453-3.33,11.326-0.183,14.555c-0.173,0.283-0.349,0.564-0.527,0.844
		c-0.093-0.281-0.357-0.486-0.671-0.486c-0.39,0-0.705,0.316-0.705,0.705c0,0.391,0.315,0.707,0.705,0.707
		c0.021,0,0.042-0.002,0.063-0.004c-1.191,1.76-2.51,3.426-3.942,4.988c2.773-5.908,1.051-7.211,2.4-13.734
		c-3.434,4.929-5.548,10.56-2.977,14.349c-0.399,0.418-0.806,0.826-1.221,1.229c0.001-0.012,0.001-0.021,0.001-0.033
		c0-0.391-0.316-0.705-0.705-0.705c-0.39,0-0.706,0.314-0.706,0.705c0,0.387,0.313,0.701,0.7,0.705c-2,1.85-4.175,3.512-6.498,4.957
		c4.76-5.051,3.378-6.756,6.683-12.705c-4.8,3.719-8.527,8.527-7.079,12.949c-0.427,0.262-0.86,0.514-1.298,0.76
		c0.032-0.082,0.051-0.17,0.051-0.262c0-0.391-0.316-0.705-0.706-0.705c-0.389,0-0.705,0.314-0.705,0.705
		c0,0.344,0.247,0.631,0.573,0.693c-1.764,0.941-3.601,1.764-5.5,2.457c4.928-3.846,4.09-5.814,8.23-10.902
		c-5.282,2.771-9.729,6.758-9.268,11.266c-0.511,0.172-1.026,0.334-1.545,0.486c0.136-0.129,0.222-0.311,0.222-0.514
		c0-0.389-0.316-0.705-0.706-0.705c-0.389,0-0.705,0.316-0.705,0.705c0,0.342,0.243,0.627,0.565,0.693
		c-2.39,0.662-4.864,1.125-7.401,1.369c6.304-2.918,5.654-5.018,10.938-9.309c-5.825,1.662-11.063,4.725-11.389,9.348
		c-1.219,0.105-2.452,0.158-3.697,0.158c-0.301,0-0.602-0.004-0.9-0.012c2.584-0.518,4.763-3.316,6.29-6.525
		c-3.556,3.131-4.871,2.357-7.664,6.561c-3.89,0.584-8.419,5.035-10.543,4.383l1.391,1.129c3.12-0.398,5.908-4.84,9.769-5.07
		c0.55,0.021,1.103,0.035,1.658,0.035c0.804,0,1.604-0.021,2.397-0.064c-0.221,0.119-0.372,0.352-0.372,0.621
		c0,0.389,0.316,0.705,0.706,0.705c0.389,0,0.705-0.316,0.705-0.705c0-0.299-0.187-0.555-0.449-0.658
		c0.258-0.018,0.516-0.037,0.774-0.059c2.934,3.574,8.97,3.063,14.679,1.07c-5.096-0.352-6.749-1.615-10.145-1.699
		c1.227-0.236,2.435-0.525,3.622-0.863c-0.099,0.123-0.158,0.277-0.158,0.445c0,0.389,0.316,0.705,0.706,0.705
		c0.389,0,0.705-0.316,0.705-0.705c0-0.313-0.203-0.578-0.484-0.67c0.388-0.119,0.774-0.242,1.157-0.371
		c3.578,2.924,9.394,1.242,14.6-1.828c-5.467,0.705-7.21-0.418-11.104,0.486c1.188-0.516,2.35-1.082,3.48-1.699
		c-0.02,0.064-0.03,0.133-0.03,0.201c0,0.391,0.316,0.707,0.706,0.707s0.705-0.316,0.705-0.707c0-0.326-0.223-0.602-0.525-0.682
		c0.307-0.176,0.609-0.354,0.911-0.537c4.199,1.885,9.378-1.223,13.617-5.508c-4.705,1.912-6.749,1.52-9.808,2.908
		c1.218-0.928,2.385-1.918,3.496-2.967c-0.016,0.057-0.023,0.117-0.023,0.18c0,0.391,0.316,0.707,0.705,0.707
		c0.39,0,0.706-0.316,0.706-0.707c0-0.389-0.316-0.705-0.706-0.705c-0.052,0-0.104,0.006-0.152,0.018
		c0.402-0.393,0.796-0.793,1.183-1.199c4.488,1.252,9.123-2.695,12.619-7.668c-5.309,3.281-7.236,2.459-11.241,6.146
		c1.119-1.295,2.163-2.656,3.125-4.078v0.002c0,0.389,0.316,0.705,0.706,0.705c0.389,0,0.705-0.316,0.705-0.705
		c0-0.391-0.316-0.705-0.705-0.705c-0.098,0-0.19,0.02-0.274,0.055c0.27-0.414,0.532-0.834,0.789-1.258
		c-0.056,0.104-0.111,0.207-0.167,0.314c4.722,0.1,8.18-4.98,10.242-10.753c-4.247,4.582-6.324,4.296-9.207,8.935
		c0.855-1.555,1.62-3.166,2.285-4.826c0.101,0.264,0.357,0.453,0.658,0.453c0.39,0,0.705-0.316,0.705-0.707
		c0-0.388-0.315-0.705-0.705-0.705c-0.114,0-0.222,0.027-0.317,0.075c0.261-0.695,0.504-1.399,0.729-2.11
		c-0.031,0.108-0.062,0.219-0.092,0.332c4.63-0.93,6.899-6.64,7.655-12.724c-3.252,5.573-5.373,5.576-7.218,11.249
		c0.54-1.884,0.957-3.821,1.24-5.801c0.125,0.199,0.346,0.331,0.598,0.331c0.39,0,0.706-0.316,0.706-0.706
		c0-0.389-0.316-0.705-0.706-0.705c-0.185,0-0.354,0.071-0.479,0.188c0.085-0.695,0.154-1.395,0.206-2.099
		c4.254-1.844,5.333-7.797,4.888-13.82c-2.044,5.955-4.074,6.45-4.795,12.066c0.017-0.492,0.025-0.985,0.025-1.481
		c0-1.064-0.038-2.119-0.113-3.164c0.119,0.092,0.269,0.147,0.432,0.147c0.389,0,0.705-0.316,0.705-0.705
		c0-0.39-0.316-0.706-0.705-0.706c-0.205,0-0.39,0.088-0.519,0.228c-0.037-0.38-0.078-0.759-0.124-1.136
		c3.334-2.551,3.005-8.026,1.322-13.236c-0.484,5.248-1.953,6.403-1.736,10.548c-0.303-1.626-0.696-3.221-1.175-4.779
		c0.122,0.1,0.277,0.159,0.446,0.159c0.39,0,0.705-0.316,0.705-0.706c0-0.389-0.315-0.705-0.705-0.705
		c-0.323,0-0.596,0.218-0.68,0.515c-0.195-0.6-0.405-1.194-0.626-1.783c2.646-3.185,1.21-8.426-1.475-13.142
		c0.591,5.204-0.593,6.648,0.429,10.606c-0.611-1.358-1.29-2.68-2.033-3.961c0.069,0.023,0.144,0.035,0.22,0.035
		c0.391,0,0.706-0.316,0.706-0.706c0-0.389-0.315-0.705-0.706-0.705c-0.346,0-0.633,0.249-0.693,0.578
		c-0.206-0.338-0.417-0.674-0.632-1.007c2.01-3.712-0.575-8.574-4.288-12.625c1.858,5.298,0.769,6.838,3.229,11.063
		c-0.937-1.321-1.946-2.587-3.021-3.793c0.363-0.028,0.649-0.333,0.649-0.703c0-0.39-0.315-0.706-0.705-0.706
		c-0.35,0-0.639,0.254-0.695,0.587c-0.349-0.371-0.703-0.736-1.064-1.095c1.057-3.927-2.295-8.118-6.565-11.357
		c2.517,4.423,2.097,6.242,4.36,9.31c-0.886-0.768-1.803-1.5-2.749-2.196c0.26-0.104,0.442-0.358,0.442-0.655
		c0-0.389-0.315-0.705-0.705-0.705c-0.378,0-0.686,0.296-0.705,0.669C91.891,8.896,91.698,8.765,91.503,8.635L91.503,8.635z"/>
	<path fill-rule="evenodd" clip-rule="evenodd" fill="#00ADEE" d="M108.85,78.021C97.582,89.129,82.115,95.986,65.047,95.986
		c-17.067,0-32.534-6.857-43.802-17.965c-3.153,5.475-6.337,10.977-9.48,16.42l0.013,0.012l0.245,0.213
		c14.201,12.338,32.74,19.811,53.024,19.811c20.407,0,39.049-7.563,53.282-20.035C115.188,89,112.008,83.492,108.85,78.021
		L108.85,78.021z M21.711,80.402c11.38,10.539,26.605,16.986,43.336,16.986c16.731,0,31.956-6.447,43.335-16.986l8.002,13.883
		c-13.853,11.729-31.769,18.805-51.337,18.805s-37.485-7.076-51.338-18.807L21.711,80.402L21.711,80.402z"/>
	<path fill-rule="evenodd" clip-rule="evenodd" fill="#00ADEE" d="M120.796,66.938c-2.691,4.488-5.909,8.623-9.567,12.322
		l0.757,1.311c2.922-2.92,5.572-6.109,7.912-9.527l-3.321,14.658l11.806,3.941c-15.499,17.496-38.128,28.533-63.334,28.533
		c-25.249,0-47.914-11.072-63.415-28.619l11.792-3.938l-3.341-14.744c2.368,3.482,5.057,6.729,8.027,9.695l0.756-1.311
		c-3.658-3.699-6.875-7.834-9.567-12.322l-1.301,0.666l-0.007,0.002l3.962,17.15L0,88.748l0.182,1.262
		c15.764,18.105,38.98,29.553,64.866,29.553c25.818,0,48.98-11.389,64.742-29.412L130,88.83l-11.953-3.992l4.052-17.232
		L120.796,66.938L120.796,66.938z"/>
	<path fill="#00ADEE" d="M20.215,95.449l5.104-7.859l1.234,0.803c0.717,0.465,1.209,0.854,1.479,1.16
		c0.39,0.43,0.613,0.904,0.673,1.422c0.057,0.52-0.064,1.008-0.362,1.469c-0.194,0.299-0.435,0.529-0.718,0.689
		c-0.285,0.162-0.64,0.26-1.063,0.287c0.33,0.533,0.498,1.041,0.5,1.521c0.001,0.48-0.146,0.949-0.444,1.408
		c-0.287,0.441-0.663,0.771-1.126,0.986c-0.464,0.215-0.934,0.295-1.411,0.242c-0.478-0.055-1.032-0.287-1.667-0.699L20.215,95.449
		L20.215,95.449z M25.889,89.99l-1.075,1.656l0.325,0.211c0.363,0.236,0.683,0.334,0.958,0.297c0.276-0.039,0.499-0.189,0.671-0.455
		c0.16-0.246,0.203-0.496,0.128-0.748c-0.072-0.252-0.282-0.488-0.624-0.711L25.889,89.99L25.889,89.99z M23.947,92.982
		l-1.309,2.014l0.374,0.244c0.618,0.4,1.087,0.594,1.406,0.578c0.317-0.018,0.572-0.176,0.767-0.475
		c0.22-0.34,0.267-0.688,0.142-1.049c-0.127-0.359-0.482-0.73-1.071-1.113L23.947,92.982L23.947,92.982z M33.444,92.609l1.598,0.85
		l-1.217,9.967l-1.638-0.871l0.26-2.047l-3.373-1.795l-1.583,1.346l-1.636-0.869L33.444,92.609L33.444,92.609z M33.088,95.234
		l-2.613,2.254l2.2,1.17L33.088,95.234L33.088,95.234z M45.724,99.461l-1.568,0.719c-0.512-1.123-1.269-1.857-2.272-2.203
		c-0.849-0.293-1.662-0.248-2.441,0.131c-0.779,0.377-1.314,0.99-1.605,1.838c-0.203,0.59-0.256,1.158-0.157,1.703
		c0.099,0.547,0.339,1.031,0.718,1.455c0.381,0.422,0.858,0.732,1.432,0.93c0.49,0.168,0.969,0.232,1.439,0.189
		c0.468-0.043,1.028-0.221,1.68-0.537l0.734,1.586c-0.876,0.414-1.646,0.643-2.313,0.689s-1.374-0.059-2.122-0.316
		c-1.375-0.475-2.354-1.299-2.931-2.475c-0.575-1.174-0.63-2.445-0.16-3.809c0.304-0.885,0.774-1.602,1.412-2.15
		c0.635-0.549,1.396-0.904,2.286-1.064c0.888-0.16,1.762-0.094,2.622,0.201c0.732,0.252,1.382,0.648,1.951,1.191
		C44.998,98.08,45.43,98.723,45.724,99.461L45.724,99.461z M53.512,99.646l-2.108,9.131l-1.737-0.402l1.32-5.715l-4.729,4.93
		l-1.515-0.35l2.108-9.133l1.739,0.402l-1.363,5.904l4.819-5.107L53.512,99.646L53.512,99.646z M59.473,109.82l-1.608-7.18
		l-3.57,6.451l-1.874-0.264l4.881-8.777l1.792,0.252l2.265,9.781L59.473,109.82L59.473,109.82z M72.218,109.51l-3.183-6.635
		l-2.026,7.09l-1.885,0.164l2.78-9.648l1.803-0.158l4.408,9.021L72.218,109.51L72.218,109.51z M73.431,100.074l5.022-0.977
		l0.333,1.715l-3.282,0.639l0.323,1.662l3.282-0.639l0.327,1.684l-3.282,0.639l0.47,2.418l3.282-0.637l0.335,1.719l-5.022,0.977
		L73.431,100.074L73.431,100.074z M81.845,108.141l-2.584-9.008l1.416-0.406c0.821-0.236,1.437-0.354,1.845-0.355
		c0.58-0.012,1.085,0.131,1.516,0.426c0.429,0.297,0.72,0.709,0.87,1.236c0.099,0.342,0.114,0.676,0.05,0.994
		c-0.063,0.32-0.225,0.652-0.48,0.99c0.62,0.102,1.113,0.307,1.477,0.619c0.363,0.314,0.621,0.734,0.772,1.26
		c0.146,0.506,0.146,1.006,0.004,1.496c-0.142,0.492-0.389,0.9-0.741,1.225c-0.354,0.326-0.894,0.592-1.621,0.801L81.845,108.141
		L81.845,108.141z M81.446,100.277l0.544,1.896l0.372-0.105c0.416-0.119,0.7-0.297,0.853-0.529c0.152-0.234,0.185-0.502,0.098-0.805
		c-0.081-0.281-0.241-0.479-0.48-0.588c-0.237-0.111-0.554-0.109-0.947,0.004L81.446,100.277L81.446,100.277z M82.43,103.705
		l0.662,2.309l0.428-0.123c0.709-0.203,1.162-0.43,1.359-0.682c0.195-0.25,0.243-0.547,0.145-0.889
		c-0.111-0.389-0.343-0.652-0.698-0.795c-0.354-0.141-0.868-0.115-1.543,0.078L82.43,103.705L82.43,103.705z M94.337,95.822
		l-0.711,1.572c-1.124-0.512-2.177-0.568-3.16-0.172c-0.833,0.336-1.417,0.902-1.757,1.699s-0.342,1.611-0.006,2.441
		c0.233,0.578,0.566,1.043,0.999,1.389c0.434,0.348,0.934,0.555,1.496,0.627c0.565,0.068,1.129-0.012,1.691-0.238
		c0.479-0.193,0.883-0.461,1.21-0.801c0.324-0.34,0.631-0.842,0.915-1.508l1.596,0.717c-0.39,0.887-0.821,1.564-1.295,2.037
		c-0.473,0.473-1.074,0.857-1.809,1.152c-1.349,0.545-2.628,0.564-3.835,0.057c-1.205-0.51-2.079-1.432-2.62-2.771
		c-0.351-0.867-0.466-1.717-0.345-2.547c0.119-0.832,0.461-1.6,1.027-2.305c0.564-0.703,1.268-1.227,2.11-1.566
		c0.718-0.291,1.468-0.418,2.254-0.381C92.885,95.258,93.631,95.459,94.337,95.822L94.337,95.822z M94.199,93.912l1.592-0.846
		l1.514,2.848l0.73-4.041l1.895-1.008l-0.927,5.227l5.608,2.898l-1.867,0.992l-4.507-2.314l1.953,3.672l-1.592,0.848L94.199,93.912
		L94.199,93.912z M105.703,86.816l5.508,7.582l-1.442,1.049l-3.448-4.746l0.618,6.803l-1.258,0.914l-5.509-7.582l1.444-1.049
		l3.563,4.902l-0.693-6.988L105.703,86.816L105.703,86.816z"/>
	<path fill="#00ADEE" d="M50.88,65.84h1.972v3.854h3.417V65.84h1.965v10.215h-1.965v-4.479h-3.417v4.479H50.88V65.84L50.88,65.84z
		 M69.946,67.639l-1.36,1.299c-0.927-0.977-1.967-1.465-3.124-1.465c-0.979,0-1.801,0.334-2.469,1s-1.002,1.488-1.002,2.465
		c0,0.68,0.147,1.285,0.443,1.811c0.296,0.529,0.715,0.943,1.256,1.244c0.543,0.301,1.145,0.451,1.806,0.451
		c0.564,0,1.081-0.104,1.549-0.316c0.468-0.211,0.981-0.592,1.541-1.148l1.32,1.375c-0.756,0.736-1.47,1.246-2.141,1.531
		c-0.67,0.283-1.436,0.426-2.299,0.426c-1.585,0-2.886-0.502-3.898-1.51c-1.01-1.008-1.517-2.297-1.517-3.869
		c0-1.02,0.23-1.926,0.692-2.717c0.459-0.791,1.119-1.426,1.979-1.908c0.857-0.48,1.782-0.723,2.773-0.723
		c0.843,0,1.654,0.178,2.434,0.535C68.709,66.475,69.383,66.982,69.946,67.639L69.946,67.639z M74.76,65.84h1.972l3.93,10.215H78.64
		l-0.799-2.104h-4.164l-0.834,2.104h-2.02L74.76,65.84L74.76,65.84z M75.76,68.549l-1.363,3.506h2.717L75.76,68.549L75.76,68.549z"
		/>
	<path fill-rule="evenodd" clip-rule="evenodd" fill="#2E3191" d="M71.561,17.587c-0.979,2.299-3.26,3.912-5.916,3.912
		s-4.937-1.613-5.916-3.912H71.561L71.561,17.587z"/>
	<path fill-rule="evenodd" clip-rule="evenodd" fill="#2E3191" d="M42.606,28.542h5.638v0.919h-0.555l0.75,25.62h0.522V56h-7.075
		v-0.919h0.523l0.75-25.62h-0.554V28.542L42.606,28.542z M55.656,28.542h5.638v0.919h-0.555l0.75,25.62h0.523V56h-7.076v-0.919
		h0.523l0.75-25.62h-0.555V28.542L55.656,28.542z M68.706,28.542h5.638v0.919h-0.555l0.751,25.62h0.522V56h-7.075v-0.919h0.522
		l0.751-25.62h-0.555V28.542L68.706,28.542z M81.756,28.542h5.639v0.919H86.84l0.75,25.62h0.523V56h-7.076v-0.919h0.523l0.75-25.62
		h-0.555V28.542L81.756,28.542z"/>
	<polygon fill-rule="evenodd" clip-rule="evenodd" fill="#2E3191" points="41.061,27.421 88.939,27.421 88.939,28.345 
		41.061,28.345 41.061,27.421 	"/>
	<polygon fill-rule="evenodd" clip-rule="evenodd" fill="#2E3191" points="41.887,24.462 88.113,24.462 88.113,27.236 
		41.887,27.236 41.887,24.462 	"/>
	<polygon fill-rule="evenodd" clip-rule="evenodd" fill="#2E3191" points="39.083,23.353 90.918,23.353 90.918,24.277 
		39.083,24.277 39.083,23.353 	"/>
	<polygon fill-rule="evenodd" clip-rule="evenodd" fill="#2E3191" points="40.348,21.657 89.652,21.657 89.652,23.168 
		40.348,23.168 40.348,21.657 	"/>
	<polygon fill-rule="evenodd" clip-rule="evenodd" fill="#2E3191" points="40.341,56.196 89.659,56.196 89.659,58.969 
		40.341,58.969 40.341,56.196 	"/>
	<polygon fill-rule="evenodd" clip-rule="evenodd" fill="#2E3191" points="38.77,59.154 91.23,59.154 91.23,60.541 38.77,60.541 
		38.77,59.154 	"/>
	<polygon fill-rule="evenodd" clip-rule="evenodd" fill="#2E3191" points="36.974,60.727 93.026,60.727 93.026,63.734 
		36.974,63.734 36.974,60.727 	"/>
</g>
</svg>
